<?xml version="1.0" encoding="UTF-8"?>
<svg width="1108px" height="286px" viewBox="0 0 1108 286" version="1.1" xmlns="http://www.w3.org/2000/svg" xmlns:xlink="http://www.w3.org/1999/xlink">
    <!-- Generator: Sketch 48.2 (47327) - http://www.bohemiancoding.com/sketch -->
    <title>pm2-plus_black</title>
    <desc>Created with Sketch.</desc>
    <defs></defs>
    <g id="Page-1" stroke="none" stroke-width="1" fill="none" fill-rule="evenodd">
        <g id="pm2-plus_black">
            <path d="M903,150.93 C903,141.096667 904.206667,132.933333 906.62,126.44 C908.783133,120.290757 912.637469,114.876662 917.74,110.82 C923.306373,106.640557 929.703074,103.701348 936.5,102.2 C945.295828,100.17373 954.236254,98.8363438 963.24,98.2 L1043.7,92.45 C1052.52667,91.7833333 1059.48,90.7033333 1064.56,89.21 C1069.64,87.7166667 1073.47333,85.59 1076.06,82.83 C1078.666,80.0244687 1080.36351,76.4969988 1080.93,72.71 C1081.65665,67.8312797 1081.99106,62.9021606 1081.93,57.97 C1081.97476,52.2814493 1081.49608,46.6008431 1080.5,41 C1079.79069,36.6135812 1077.88788,32.5069726 1075,29.13 C1071.874,25.8227533 1067.8938,23.4450175 1063.5,22.26 C1058.62,20.7533333 1052.09667,20 1043.93,20 L967.93,20 C962.124585,19.9620296 956.322702,20.2960471 950.56,21 C945.887566,21.5105403 941.417836,23.1849698 937.56,25.87 C933.966667,28.4566667 931.256667,32.33 929.43,37.49 C927.603333,42.65 926.69,49.73 926.69,58.73 L926.69,68.73 L903.69,68.73 L903.69,51.73 C903.69,32.7366667 908.936667,19.37 919.43,11.63 C929.923333,3.89 945.853333,0.0133333333 967.22,0 L1043.68,0 C1056.66667,0 1067.16,1.41666667 1075.16,4.25 C1083.16,7.08333333 1089.36667,11.0833333 1093.78,16.25 C1098.27874,21.5970325 1101.3325,28.0075189 1102.65,34.87 C1104.22383,42.8927341 1104.97771,51.0547226 1104.9,59.23 C1104.9,71.23 1103.65,80.6833333 1101.15,87.59 C1098.89115,94.20777 1094.38283,99.8237057 1088.41,103.46 C1082.41,107.133333 1074.41,109.633333 1064.41,110.96 C1054.41,112.286667 1042,113.45 1027.18,114.45 L989.69,116.95 C975.37,117.95 963.96,118.95 955.46,119.95 C946.96,120.95 940.546667,122.45 936.22,124.45 C931.886667,126.45 929.096667,129.196667 927.85,132.69 C926.603333,136.183333 925.98,140.933333 925.98,146.94 L925.98,162.94 L1107.4,162.94 L1107.4,182.94 L903,182.94 L903,150.93 Z" id="Shape" fill="#222A36" fill-rule="nonzero"></path>
            <path d="M274,35.91 L16,35.91 C7.163444,35.91 0,28.746556 0,19.91 C0,11.073444 7.163444,3.91 16,3.91 L274,3.91 C282.836556,3.91 290,11.073444 290,19.91 C290,28.746556 282.836556,35.91 274,35.91 Z" id="Shape" fill="#01CEA2" fill-rule="nonzero"></path>
            <path d="M274,182.91 L16,182.91 C7.163444,182.91 0,175.746556 0,166.91 C0,158.073444 7.163444,150.91 16,150.91 L274,150.91 C282.836556,150.91 290,158.073444 290,166.91 C290,175.746556 282.836556,182.91 274,182.91 Z" id="Shape" fill="#01CEA2" fill-rule="nonzero"></path>
            <path d="M274,109.91 L16,109.91 C7.163444,109.91 0,102.746556 0,93.91 C0,85.073444 7.163444,77.91 16,77.91 L274,77.91 C282.836556,77.91 290,85.073444 290,93.91 C290,102.746556 282.836556,109.91 274,109.91 Z" id="Shape" fill="#01CEA2" fill-rule="nonzero"></path>
            <polygon id="Shape" fill="#222A36" fill-rule="nonzero" points="573.91 2 612.14 2 717.84 153.67 823.54 2 861.77 2 861.77 182.91 837.28 182.91 837.28 24 836.78 24 726.59 182.91 709.1 182.91 598.9 24 598.4 24 598.4 182.91 573.91 182.91"></polygon>
            <path d="M537.93,25.74 C535.603333,19.24 532.27,14.24 527.93,10.74 C523.192284,7.07030059 517.601379,4.66191059 511.68,3.74 C504.412826,2.50739982 497.050649,1.92177212 489.68,1.99 L340.84,1.99 L340.84,22 L484,22 C488.730721,21.949409 493.456411,22.3242512 498.12,23.12 C501.835845,23.7262766 505.374749,25.1356956 508.49,27.25 C511.346114,29.3190109 513.527388,32.1856302 514.76,35.49 C516.18,38.99 516.76,43.41 516.76,48.74 L516.76,66 C516.76,75.49 514.14,82.28 508.76,86.11 C503.38,89.94 495.78,92 486,92 L340.84,92 L340.84,183 L364.84,183 L364.84,112 L485,112 C498.32,112 508.74,110.63 516.23,108.13 C523.72,105.63 529.35,101.78 533.1,96.7 C536.85,91.62 539.18,85.26 540.1,77.7 C541.075065,68.9412615 541.532527,60.132624 541.47,51.32 C541.43,40.75 540.26,32.23 537.93,25.74 Z" id="Shape" fill="#222A36" fill-rule="nonzero"></path>
            <rect id="Rectangle-path" fill="#01CEA2" fill-rule="nonzero" x="0" y="263" width="854" height="6"></rect>
            <g id="Plus" transform="translate(952.000000, 221.000000)" fill="#222A36">
                <g id="Group">
                    <path d="M12.4375999,40.3737756 L8.36821748,63.8139566 L0.640501453,63.8139566 L11.0400342,3.93868718 L31.0170022,3.9798103 C37.1827639,3.9798103 41.93718,5.61786505 45.280393,8.8940237 C48.623606,12.1701823 50.0622621,16.5223362 49.5964046,21.9506158 C49.1031436,27.6804664 46.821846,32.1902573 42.7524433,35.4801238 C38.6830406,38.7699902 33.3189084,40.4148987 26.6598857,40.4148987 L12.4375999,40.3737756 Z M13.5474314,33.917445 L26.8654101,33.9585682 C31.0581281,33.9585682 34.4972013,32.9030852 37.1827331,30.7920876 C39.8682649,28.6810899 41.4439359,25.7476697 41.9097934,21.9917389 C42.3482476,18.6196258 41.6494717,15.8849654 39.8134449,13.7876755 C37.9774181,11.6903857 35.3056281,10.5869262 31.7979948,10.477264 L17.6168138,10.4361409 L13.5474314,33.917445 Z" id="Plus"></path>
                    <polygon id="Path" points="59.461574 63.8139566 52.0626969 63.8139566 62.996593 0.648837209 70.4365749 0.648837209"></polygon>
                    <path d="M99.8676636,59.4137823 C96.3874337,63.0052198 91.9618533,64.7460813 86.5907898,64.6364191 C82.3432651,64.5267569 79.1987738,63.0052165 77.1572216,60.0717523 C75.1156694,57.1382881 74.3552368,53.1356773 74.8759012,48.0637999 L79.6440664,19.3187358 L87.0840483,19.3187358 L82.2747782,48.1871693 C82.1377613,49.3934536 82.1103583,50.5723047 82.1925685,51.723758 C82.3295854,53.6976778 82.9187493,55.2466334 83.960078,56.3706711 C85.0014066,57.4947088 86.4537643,58.0978419 88.3171945,58.1800886 C93.6334512,58.3445819 97.7438974,56.1924932 100.648656,51.723758 L106.238919,19.3187358 L113.678901,19.3187358 L105.951185,63.8139566 L98.9222516,63.8139566 L99.8676636,59.4137823 Z" id="Path"></path>
                    <path d="M144.589765,51.7648811 C145.000816,48.6943391 143.315533,46.5285429 139.533866,45.2674274 L131.80615,43.0056556 C125.284144,40.7575802 122.132802,37.0291208 122.352029,31.8201657 C122.543853,27.8997415 124.331897,24.6853161 127.716215,22.1767929 C131.100533,19.6682698 135.080815,18.4414422 139.65718,18.4962733 C144.151335,18.5511044 147.802782,19.8601774 150.611629,22.4235317 C153.420476,24.9868859 154.770072,28.3246795 154.660459,32.4370125 L147.261582,32.3958894 C147.316388,30.1752296 146.617613,28.3658302 145.165233,26.967637 C143.712854,25.5694437 141.780944,24.8429425 139.369446,24.7881114 C136.793528,24.7332803 134.573887,25.3638285 132.710457,26.6797751 C130.984043,27.913475 129.983835,29.5309684 129.709801,31.5323038 C129.353557,34.1093658 130.929228,35.9873031 134.436861,37.1661719 L138.177405,38.19425 C143.274434,39.5101966 146.891627,41.2236429 149.029091,43.3346406 C151.166555,45.4456382 152.153062,48.0637843 151.988642,51.1891574 C151.824222,53.9581283 150.919923,56.3706608 149.27572,58.4268273 C147.631517,60.4829938 145.439279,62.0525107 142.698941,63.1354251 C139.958602,64.2183394 137.040185,64.7186658 133.943603,64.6364191 C129.230221,64.581588 125.338998,63.2039771 122.269819,60.5035451 C119.20064,57.8031131 117.720879,54.3282438 117.830493,50.078833 L125.270475,50.1199561 C125.270475,52.6147715 126.065161,54.6160769 127.654557,56.1239323 C129.243954,57.6317878 131.42249,58.3857042 134.190232,58.3857042 C136.903167,58.4405353 139.246122,57.8716711 141.219165,56.6790945 C143.192209,55.4865179 144.315731,53.8484632 144.589765,51.7648811 Z" id="Path"></path>
                </g>
            </g>
        </g>
    </g>
</svg>