<?xml version="1.0" encoding="UTF-8"?>
<svg width="1108px" height="305px" viewBox="0 0 1108 305" version="1.1" xmlns="http://www.w3.org/2000/svg" xmlns:xlink="http://www.w3.org/1999/xlink">
    <!-- Generator: Sketch 48.2 (47327) - http://www.bohemiancoding.com/sketch -->
    <title>pm2-enterprise_black</title>
    <desc>Created with Sketch.</desc>
    <defs></defs>
    <g id="Page-1" stroke="none" stroke-width="1" fill="none" fill-rule="evenodd">
        <g id="pm2-enterprise_black">
            <path d="M903,150.93 C903,141.096667 904.206667,132.933333 906.62,126.44 C908.783133,120.290757 912.637469,114.876662 917.74,110.82 C923.306373,106.640557 929.703074,103.701348 936.5,102.2 C945.295828,100.17373 954.236254,98.8363438 963.24,98.2 L1043.7,92.45 C1052.52667,91.7833333 1059.48,90.7033333 1064.56,89.21 C1069.64,87.7166667 1073.47333,85.59 1076.06,82.83 C1078.666,80.0244687 1080.36351,76.4969988 1080.93,72.71 C1081.65665,67.8312797 1081.99106,62.9021606 1081.93,57.97 C1081.97476,52.2814493 1081.49608,46.6008431 1080.5,41 C1079.79069,36.6135812 1077.88788,32.5069726 1075,29.13 C1071.874,25.8227533 1067.8938,23.4450175 1063.5,22.26 C1058.62,20.7533333 1052.09667,20 1043.93,20 L967.93,20 C962.124585,19.9620296 956.322702,20.2960471 950.56,21 C945.887566,21.5105403 941.417836,23.1849698 937.56,25.87 C933.966667,28.4566667 931.256667,32.33 929.43,37.49 C927.603333,42.65 926.69,49.73 926.69,58.73 L926.69,68.73 L903.69,68.73 L903.69,51.73 C903.69,32.7366667 908.936667,19.37 919.43,11.63 C929.923333,3.89 945.853333,0.0133333333 967.22,0 L1043.68,0 C1056.66667,0 1067.16,1.41666667 1075.16,4.25 C1083.16,7.08333333 1089.36667,11.0833333 1093.78,16.25 C1098.27874,21.5970325 1101.3325,28.0075189 1102.65,34.87 C1104.22383,42.8927341 1104.97771,51.0547226 1104.9,59.23 C1104.9,71.23 1103.65,80.6833333 1101.15,87.59 C1098.89115,94.20777 1094.38283,99.8237057 1088.41,103.46 C1082.41,107.133333 1074.41,109.633333 1064.41,110.96 C1054.41,112.286667 1042,113.45 1027.18,114.45 L989.69,116.95 C975.37,117.95 963.96,118.95 955.46,119.95 C946.96,120.95 940.546667,122.45 936.22,124.45 C931.886667,126.45 929.096667,129.196667 927.85,132.69 C926.603333,136.183333 925.98,140.933333 925.98,146.94 L925.98,162.94 L1107.4,162.94 L1107.4,182.94 L903,182.94 L903,150.93 Z" id="Shape" fill="#222A36" fill-rule="nonzero"></path>
            <path d="M274,35.91 L16,35.91 C7.163444,35.91 1.082166e-15,28.746556 0,19.91 C-1.082166e-15,11.073444 7.163444,3.91 16,3.91 L274,3.91 C282.836556,3.91 290,11.073444 290,19.91 C290,28.746556 282.836556,35.91 274,35.91 Z" id="Shape" fill="#7F86F5" fill-rule="nonzero"></path>
            <path d="M274,182.91 L16,182.91 C7.163444,182.91 1.082166e-15,175.746556 0,166.91 C-1.082166e-15,158.073444 7.163444,150.91 16,150.91 L274,150.91 C282.836556,150.91 290,158.073444 290,166.91 C290,175.746556 282.836556,182.91 274,182.91 Z" id="Shape" fill="#7F86F5" fill-rule="nonzero"></path>
            <path d="M274,109.91 L16,109.91 C7.163444,109.91 1.082166e-15,102.746556 0,93.91 C-1.082166e-15,85.073444 7.163444,77.91 16,77.91 L274,77.91 C282.836556,77.91 290,85.073444 290,93.91 C290,102.746556 282.836556,109.91 274,109.91 Z" id="Shape" fill="#7F86F5" fill-rule="nonzero"></path>
            <polygon id="Shape" fill="#222A36" fill-rule="nonzero" points="573.91 2 612.14 2 717.84 153.67 823.54 2 861.77 2 861.77 182.91 837.28 182.91 837.28 24 836.78 24 726.59 182.91 709.1 182.91 598.9 24 598.4 24 598.4 182.91 573.91 182.91"></polygon>
            <path d="M537.93,25.74 C535.603333,19.24 532.27,14.24 527.93,10.74 C523.192284,7.07030059 517.601379,4.66191059 511.68,3.74 C504.412826,2.50739982 497.050649,1.92177212 489.68,1.99 L340.84,1.99 L340.84,22 L484,22 C488.730721,21.949409 493.456411,22.3242512 498.12,23.12 C501.835845,23.7262766 505.374749,25.1356956 508.49,27.25 C511.346114,29.3190109 513.527388,32.1856302 514.76,35.49 C516.18,38.99 516.76,43.41 516.76,48.74 L516.76,66 C516.76,75.49 514.14,82.28 508.76,86.11 C503.38,89.94 495.78,92 486,92 L340.84,92 L340.84,183 L364.84,183 L364.84,112 L485,112 C498.32,112 508.74,110.63 516.23,108.13 C523.72,105.63 529.35,101.78 533.1,96.7 C536.85,91.62 539.18,85.26 540.1,77.7 C541.075065,68.9412615 541.532527,60.132624 541.47,51.32 C541.43,40.75 540.26,32.23 537.93,25.74 Z" id="Shape" fill="#222A36" fill-rule="nonzero"></path>
            <path d="M823.3125,266.339844 L801.796875,266.339844 L798.632812,284.480469 L823.664062,284.480469 L822.679688,290 L791.074219,290 L799.96875,238.8125 L831.222656,238.8125 L830.238281,244.367188 L805.59375,244.367188 L802.746094,260.820312 L824.261719,260.820312 L823.3125,266.339844 Z M842.753906,251.925781 L841.839844,256.742188 C845.261736,252.992169 849.152322,251.164062 853.511719,251.257812 C857.097674,251.351563 859.746085,252.593738 861.457031,254.984375 C863.167977,257.375012 863.800783,260.73826 863.355469,265.074219 L859.207031,290 L852.84375,290 L857.027344,264.96875 C857.167969,263.820307 857.179688,262.753911 857.0625,261.769531 C856.664061,258.488265 854.730486,256.8125 851.261719,256.742188 C847.441387,256.671875 844.089858,258.710917 841.207031,262.859375 L836.496094,290 L830.132812,290 L836.742188,251.960938 L842.753906,251.925781 Z M885.820312,242.75 L884.203125,251.960938 L891.128906,251.960938 L890.25,256.988281 L883.359375,256.988281 L879.386719,280.648438 C879.316406,281.257816 879.304687,281.82031 879.351562,282.335938 C879.515626,284.164072 880.51171,285.078125 882.339844,285.078125 C883.113285,285.078125 884.144525,284.960939 885.433594,284.726562 L884.941406,290.035156 C883.417961,290.457033 881.871102,290.667969 880.300781,290.667969 C877.769519,290.621094 875.8711,289.689462 874.605469,287.873047 C873.339837,286.056632 872.847655,283.613297 873.128906,280.542969 L876.996094,256.988281 L870.28125,256.988281 L871.160156,251.960938 L877.875,251.960938 L879.492188,242.75 L885.820312,242.75 Z M908.636719,290.703125 C903.90232,290.609375 900.199232,288.863298 897.527344,285.464844 C894.855455,282.066389 893.730467,277.718776 894.152344,272.421875 L894.328125,270.910156 C894.726564,267.1367 895.845694,263.691422 897.685547,260.574219 C899.5254,257.457016 901.769518,255.10743 904.417969,253.525391 C907.066419,251.943351 909.925766,251.1875 912.996094,251.257812 C916.910176,251.351563 919.980458,252.652331 922.207031,255.160156 C924.433605,257.667981 925.652343,261.066385 925.863281,265.355469 C925.933594,266.878914 925.88672,268.402336 925.722656,269.925781 L925.335938,272.84375 L900.480469,272.84375 C900.058592,276.28908 900.626945,279.218738 902.185547,281.632812 C903.744148,284.046887 906.070297,285.300781 909.164062,285.394531 C912.914081,285.488282 916.382797,283.800799 919.570312,280.332031 L923.226562,283.425781 C921.632805,285.722668 919.576184,287.521478 917.056641,288.822266 C914.537097,290.123053 911.730484,290.75 908.636719,290.703125 Z M912.679688,256.566406 C910.054674,256.496093 907.763682,257.386709 905.806641,259.238281 C903.8496,261.089853 902.296881,263.843732 901.148438,267.5 L919.640625,267.535156 L919.78125,266.972656 C920.156252,264.019516 919.681647,261.564463 918.357422,259.607422 C917.033197,257.650381 915.140637,256.636719 912.679688,256.566406 Z M953.179688,257.761719 L950.191406,257.445312 C946.113261,257.445312 942.902355,259.285138 940.558594,262.964844 L935.882812,290 L929.519531,290 L936.128906,251.960938 L942.28125,251.925781 L941.332031,256.355469 C944.027357,252.816389 947.203107,251.09375 950.859375,251.1875 C951.632816,251.1875 952.640619,251.363279 953.882812,251.714844 L953.179688,257.761719 Z M987.949219,271.15625 C987.480466,275.023457 986.437508,278.503891 984.820312,281.597656 C983.203117,284.691422 981.199231,287.005852 978.808594,288.541016 C976.417957,290.07618 973.769546,290.808594 970.863281,290.738281 C966.457009,290.644531 963.082043,289.156264 960.738281,286.273438 L957.328125,304.625 L950.964844,304.625 L960.105469,251.960938 L965.871094,251.925781 L965.167969,256.179688 C968.308609,252.804671 972.070291,251.164062 976.453125,251.257812 C980.109393,251.351563 982.957021,252.699206 984.996094,255.300781 C987.035166,257.902357 988.113281,261.488258 988.230469,266.058594 C988.253906,267.558601 988.195313,269.011712 988.054688,270.417969 L987.949219,271.15625 Z M981.691406,270.417969 L981.867188,267.464844 C981.867188,264.042952 981.216803,261.423837 979.916016,259.607422 C978.615228,257.791007 976.734387,256.835938 974.273438,256.742188 C970.593732,256.648437 967.417982,258.394513 964.746094,261.980469 L961.546875,280.226562 C962.97657,283.601579 965.54295,285.335937 969.246094,285.429688 C972.410172,285.5 975.099598,284.263685 977.314453,281.720703 C979.529308,279.177722 980.988278,275.410181 981.691406,270.417969 Z M1016.70703,257.761719 L1013.71875,257.445312 C1009.6406,257.445312 1006.4297,259.285138 1004.08594,262.964844 L999.410156,290 L993.046875,290 L999.65625,251.960938 L1005.80859,251.925781 L1004.85938,256.355469 C1007.5547,252.816389 1010.73045,251.09375 1014.38672,251.1875 C1015.16016,251.1875 1016.16796,251.363279 1017.41016,251.714844 L1016.70703,257.761719 Z M1023.91406,290 L1017.58594,290 L1024.19531,251.960938 L1030.52344,251.960938 L1023.91406,290 Z M1029.15234,238.074219 C1030.23047,238.027344 1031.12695,238.349606 1031.8418,239.041016 C1032.55664,239.732425 1032.91406,240.640619 1032.91406,241.765625 C1032.89062,242.867193 1032.53321,243.769528 1031.8418,244.472656 C1031.15039,245.175785 1030.25391,245.550781 1029.15234,245.597656 C1028.05078,245.644531 1027.14844,245.328128 1026.44531,244.648438 C1025.74218,243.968747 1025.40234,243.078131 1025.42578,241.976562 C1025.44922,240.874994 1025.80078,239.960941 1026.48047,239.234375 C1027.16016,238.507809 1028.05078,238.121094 1029.15234,238.074219 Z M1057.875,279.699219 C1058.22656,277.074206 1056.78517,275.222662 1053.55078,274.144531 L1046.94141,272.210938 C1041.36325,270.289053 1038.66797,267.101585 1038.85547,262.648438 C1039.01953,259.296858 1040.54881,256.548839 1043.44336,254.404297 C1046.33791,252.259755 1049.74217,251.210937 1053.65625,251.257812 C1057.50002,251.304688 1060.62303,252.423817 1063.02539,254.615234 C1065.42775,256.806652 1066.58203,259.660139 1066.48828,263.175781 L1060.16016,263.140625 C1060.20703,261.242178 1059.60938,259.695318 1058.36719,258.5 C1057.12499,257.304682 1055.47267,256.683594 1053.41016,256.636719 C1051.20702,256.589844 1049.3086,257.128901 1047.71484,258.253906 C1046.23827,259.308599 1045.38281,260.691398 1045.14844,262.402344 C1044.84375,264.60548 1046.19139,266.210932 1049.19141,267.21875 L1052.39062,268.097656 C1056.75002,269.222662 1059.84374,270.687491 1061.67188,272.492188 C1063.50001,274.296884 1064.34375,276.535143 1064.20312,279.207031 C1064.0625,281.574231 1063.28907,283.63671 1061.88281,285.394531 C1060.47656,287.152353 1058.60157,288.494136 1056.25781,289.419922 C1053.91405,290.345708 1051.41798,290.773438 1048.76953,290.703125 C1044.73826,290.65625 1041.41017,289.478527 1038.78516,287.169922 C1036.16014,284.861317 1034.89453,281.890643 1034.98828,278.257812 L1041.35156,278.292969 C1041.35156,280.425792 1042.03124,282.136712 1043.39062,283.425781 C1044.75001,284.71485 1046.61327,285.359375 1048.98047,285.359375 C1051.30079,285.40625 1053.30468,284.919927 1054.99219,283.900391 C1056.6797,282.880854 1057.64062,281.480478 1057.875,279.699219 Z M1087.125,290.703125 C1082.3906,290.609375 1078.68751,288.863298 1076.01562,285.464844 C1073.34374,282.066389 1072.21875,277.718776 1072.64062,272.421875 L1072.81641,270.910156 C1073.21485,267.1367 1074.33398,263.691422 1076.17383,260.574219 C1078.01368,257.457016 1080.2578,255.10743 1082.90625,253.525391 C1085.5547,251.943351 1088.41405,251.1875 1091.48438,251.257812 C1095.39846,251.351563 1098.46874,252.652331 1100.69531,255.160156 C1102.92189,257.667981 1104.14062,261.066385 1104.35156,265.355469 C1104.42188,266.878914 1104.375,268.402336 1104.21094,269.925781 L1103.82422,272.84375 L1078.96875,272.84375 C1078.54687,276.28908 1079.11523,279.218738 1080.67383,281.632812 C1082.23243,284.046887 1084.55858,285.300781 1087.65234,285.394531 C1091.40236,285.488282 1094.87108,283.800799 1098.05859,280.332031 L1101.71484,283.425781 C1100.12109,285.722668 1098.06447,287.521478 1095.54492,288.822266 C1093.02538,290.123053 1090.21877,290.75 1087.125,290.703125 Z M1091.16797,256.566406 C1088.54296,256.496093 1086.25196,257.386709 1084.29492,259.238281 C1082.33788,261.089853 1080.78516,263.843732 1079.63672,267.5 L1098.12891,267.535156 L1098.26953,266.972656 C1098.64453,264.019516 1098.16993,261.564463 1096.8457,259.607422 C1095.52148,257.650381 1093.62892,256.636719 1091.16797,256.566406 Z" id="Enterprise" fill="#000000"></path>
            <rect id="Rectangle-path" fill="#7F86F5" fill-rule="nonzero" x="1" y="263" width="728.030029" height="6"></rect>
        </g>
    </g>
</svg>